<svg width="247" height="44" viewBox="0 0 247 44" fill="none" xmlns="http://www.w3.org/2000/svg">
<path d="M1.58984 13.3742V30.6269C1.58984 31.7248 2.17483 32.7418 3.12881 33.2908L18.0685 41.9126C19.0225 42.4616 20.1924 42.4616 21.1464 41.9126L36.0861 33.2908C37.04 32.7418 37.625 31.7248 37.625 30.6269V13.3742C37.625 12.2763 37.04 11.2593 36.0861 10.7103L21.1464 2.0885C20.1924 1.53951 19.0225 1.53951 18.0685 2.0885L3.12881 10.7103C2.18383 11.2593 1.58984 12.2763 1.58984 13.3742Z" fill="#213147"/>
<path d="M22.8744 25.3421L20.7414 31.183C20.6784 31.345 20.6784 31.525 20.7414 31.687L24.4043 41.7397L28.6432 39.2918L23.5583 25.3421C23.4413 25.0181 22.9914 25.0181 22.8744 25.3421Z" fill="#12AAFF"/>
<path d="M27.1402 15.5159C27.0232 15.192 26.5733 15.192 26.4563 15.5159L24.3233 21.3568C24.2603 21.5188 24.2603 21.6988 24.3233 21.8608L30.3262 38.3214L34.5651 35.8735L27.1402 15.5159Z" fill="#12AAFF"/>
<path d="M19.6075 2.72694C19.7155 2.72694 19.8145 2.75394 19.9135 2.80794L36.0771 12.1407C36.2661 12.2487 36.3831 12.4467 36.3831 12.6627V31.3283C36.3831 31.5443 36.2661 31.7423 36.0771 31.8503L19.9135 41.1921C19.8235 41.2461 19.7155 41.2731 19.6075 41.2731C19.4995 41.2731 19.4005 41.2461 19.3015 41.1921L3.14688 31.8593C2.95789 31.7513 2.84089 31.5533 2.84089 31.3373V12.6627C2.84089 12.4467 2.95789 12.2487 3.14688 12.1407L19.3105 2.80794C19.4005 2.75394 19.5085 2.72694 19.6075 2.72694ZM19.6075 0C19.0315 0 18.4555 0.152997 17.9426 0.44999L1.77892 9.78278C0.752938 10.3768 0.113953 11.4747 0.113953 12.6627V31.3283C0.113953 32.5163 0.752938 33.6232 1.77892 34.2172L17.9426 43.55C18.4555 43.847 19.0315 44 19.6075 44C20.1835 44 20.7595 43.847 21.2725 43.55L37.4361 34.2172C38.4711 33.6232 39.1011 32.5253 39.1011 31.3283V12.6627C39.1011 11.4747 38.4621 10.3678 37.4361 9.77378L21.2815 0.44999C20.7595 0.152997 20.1835 0 19.6075 0Z" fill="#9DCCED"/>
<path d="M8.92468 38.3389L10.4096 34.271L13.3976 36.7549L10.6076 39.3109L8.92468 38.3389Z" fill="#213147"/>
<path d="M18.2485 11.3311H14.1536C13.8476 11.3311 13.5686 11.52 13.4696 11.808L4.68579 35.8915L8.9247 38.3394L18.5995 11.817C18.6805 11.583 18.5095 11.3311 18.2485 11.3311Z" fill="white"/>
<path d="M25.4212 11.3311H21.3263C21.0203 11.3311 20.7413 11.5201 20.6423 11.808L10.6075 39.3114L14.8464 41.7594L25.7632 11.826C25.8532 11.583 25.6732 11.3311 25.4212 11.3311Z" fill="white"/>
<path d="M61.711 13C62.3554 13 62.9139 13.1289 63.3578 13.401C63.8017 13.673 64.2456 14.1885 64.6752 14.9618L73.1813 30.3986C73.2673 30.5704 73.2816 30.7136 73.2386 30.8282C73.1957 30.9427 73.0668 31 72.8663 31H69.6013C69.3149 31 69.1144 30.8854 69.0142 30.6706L67.1956 27.3628H55.1238L53.3481 30.6706C53.2335 30.8998 53.0331 31 52.761 31H49.4244C49.1953 31 49.0664 30.9427 49.0235 30.8282C48.9805 30.7136 48.9948 30.5704 49.0807 30.3986L57.5152 14.9618C57.9448 14.1885 58.3601 13.673 58.7754 13.401C59.1907 13.1289 59.6632 13 60.2074 13H61.711ZM56.7133 24.3556H65.5631L61.4819 16.8234C61.4103 16.7088 61.3244 16.6372 61.1955 16.6372H61.038C60.9234 16.6372 60.8232 16.6945 60.7516 16.8234L56.7133 24.3556Z" fill="white"/>
<path d="M91.869 13C93.8452 13 95.2486 13.4439 96.1078 14.3317C96.967 15.2196 97.3966 16.537 97.3966 18.284V19.7446C97.3966 21.2196 97.0958 22.3795 96.4944 23.2387C95.893 24.0979 94.9192 24.642 93.5588 24.8854L97.955 30.327C98.041 30.4129 98.0696 30.5418 98.0266 30.7136C97.998 30.8854 97.8548 30.9714 97.6114 30.9714H94.3034C94.0743 30.9714 93.9311 30.9427 93.8452 30.8998C93.7593 30.8425 93.6734 30.7566 93.5874 30.642L89.5206 25.3007H81.2149V30.4129C81.2149 30.7852 81.0288 30.9714 80.6565 30.9714H77.8784C77.4774 30.9714 77.2913 30.7852 77.2913 30.4129V13.7733C77.2913 13.2578 77.549 13 78.0645 13H91.869ZM81.2293 22.179H91.0671C91.9406 22.179 92.5564 21.9928 92.9144 21.6205C93.2724 21.2482 93.4586 20.6754 93.4586 19.9021V18.8282C93.4586 18.0549 93.2724 17.4821 92.9144 17.1098C92.5564 16.7375 91.9406 16.5513 91.0671 16.5513H81.5586C81.3295 16.5513 81.2293 16.6516 81.2293 16.8663V22.179Z" fill="white"/>
<path d="M118.891 13C120.652 13 121.912 13.358 122.657 14.0597C123.402 14.7613 123.774 15.821 123.774 17.2387V18.4702C123.774 19.9022 123.23 20.9905 122.127 21.7351C123.302 22.4224 123.903 23.5251 123.903 25.043V26.5322C123.903 27.2196 123.831 27.8353 123.674 28.3795C123.516 28.9236 123.273 29.3962 122.915 29.7828C122.557 30.1695 122.099 30.4702 121.512 30.6707C120.924 30.8711 120.208 30.9857 119.349 30.9857H104.084C103.569 30.9857 103.311 30.7279 103.311 30.2124V13.7733C103.311 13.2578 103.569 13 104.084 13H118.891ZM107.249 20.4749H117.788C118.648 20.4749 119.22 20.3461 119.535 20.0883C119.85 19.8306 119.994 19.4582 119.994 18.957V18.0835C119.994 17.5537 119.85 17.1671 119.55 16.9093C119.249 16.6659 118.762 16.537 118.103 16.537H107.592C107.363 16.537 107.263 16.6516 107.263 16.8664V20.4749H107.249ZM107.249 23.2816V27.105C107.249 27.3341 107.363 27.4344 107.578 27.4344H118.118C118.805 27.4344 119.292 27.3055 119.578 27.0621C119.865 26.8186 120.022 26.4177 120.022 25.8735V24.8998C120.022 24.3699 119.865 23.969 119.55 23.6969C119.235 23.4248 118.648 23.2816 117.788 23.2816H107.249Z" fill="white"/>
<path d="M133.483 13C133.855 13 134.041 13.1862 134.041 13.5585V30.4129C134.041 30.7852 133.855 30.9714 133.483 30.9714H130.705C130.304 30.9714 130.118 30.7852 130.118 30.4129V13.5728C130.118 13.2005 130.318 13.0143 130.705 13.0143L133.483 13Z" fill="white"/>
<path d="M160.405 13C160.806 13 160.992 13.1862 160.992 13.5585V16.0788C160.992 16.4797 160.791 16.6659 160.405 16.6659H152.343V30.4129C152.343 30.7852 152.156 30.9714 151.784 30.9714H148.977C148.605 30.9714 148.419 30.7852 148.419 30.4129V16.6659H140.357C139.956 16.6659 139.77 16.4654 139.77 16.0788V13.5585C139.77 13.1862 139.97 13 140.357 13H160.405Z" fill="white"/>
<path d="M180.725 13C182.701 13 184.104 13.4439 184.964 14.3317C185.823 15.2196 186.252 16.537 186.252 18.284V19.7446C186.252 21.2196 185.952 22.3795 185.35 23.2387C184.749 24.0979 183.775 24.642 182.415 24.8854L186.811 30.327C186.897 30.4129 186.925 30.5418 186.882 30.7136C186.854 30.8854 186.711 30.9714 186.467 30.9714H183.159C182.93 30.9714 182.787 30.9427 182.701 30.8998C182.615 30.8425 182.529 30.7566 182.443 30.642L178.376 25.3007H170.071V30.4129C170.071 30.7852 169.885 30.9714 169.512 30.9714H166.734C166.333 30.9714 166.147 30.7852 166.147 30.4129V13.7733C166.147 13.2578 166.405 13 166.92 13H180.725ZM170.099 22.179H179.937C180.811 22.179 181.426 21.9928 181.784 21.6205C182.142 21.2482 182.329 20.6754 182.329 19.9021V18.8282C182.329 18.0549 182.142 17.4821 181.784 17.1098C181.426 16.7375 180.811 16.5513 179.937 16.5513H170.429C170.2 16.5513 170.099 16.6516 170.099 16.8663V22.179Z" fill="white"/>
<path d="M195.174 13C195.546 13 195.732 13.1862 195.732 13.5585V23.8115C195.732 24.4988 195.789 25.0716 195.904 25.5155C196.019 25.9738 196.205 26.3317 196.462 26.5895C196.72 26.8616 197.064 27.0477 197.508 27.148C197.952 27.2625 198.496 27.3198 199.169 27.3198H206.286C206.959 27.3198 207.503 27.2625 207.947 27.148C208.391 27.0334 208.735 26.8473 208.992 26.5895C209.25 26.3174 209.436 25.9594 209.537 25.5155C209.637 25.0573 209.694 24.4988 209.694 23.8115V13.5585C209.694 13.1862 209.88 13 210.253 13H213.059C213.432 13 213.618 13.1862 213.618 13.5585V24.1981C213.618 25.4296 213.489 26.4749 213.231 27.3485C212.973 28.2076 212.558 28.9093 211.985 29.4535C211.413 29.9976 210.668 30.3843 209.751 30.6277C208.835 30.8711 207.732 30.9857 206.429 30.9857H199.026C197.723 30.9857 196.62 30.8711 195.718 30.6277C194.816 30.3843 194.071 29.9976 193.498 29.4535C192.925 28.9093 192.51 28.2076 192.238 27.3485C191.966 26.4893 191.837 25.4296 191.837 24.1981V13.5585C191.837 13.1862 192.038 13 192.424 13H195.174Z" fill="white"/>
<path d="M224.659 13C225.031 13 225.36 13.0286 225.632 13.0716C225.904 13.1289 226.148 13.2148 226.348 13.3723C226.549 13.5155 226.735 13.716 226.907 13.9594C227.064 14.2029 227.236 14.5322 227.408 14.9475L232.749 27.2769C232.821 27.4344 232.936 27.506 233.107 27.506H233.422C233.594 27.506 233.709 27.4344 233.78 27.2769L239.122 14.9475C239.294 14.5322 239.466 14.2029 239.623 13.9594C239.781 13.716 239.967 13.5155 240.182 13.3723C240.382 13.2291 240.625 13.1289 240.883 13.0716C241.155 13.0143 241.47 13 241.843 13H244.592C245.48 13 246.081 13.2005 246.396 13.6014C246.711 14.0024 246.855 14.6897 246.855 15.6635V30.4129C246.855 30.7852 246.654 30.9714 246.268 30.9714H243.647C243.275 30.9714 243.088 30.7852 243.088 30.4129V16.9952C243.088 16.8234 243.017 16.7375 242.888 16.7375H242.659C242.487 16.7375 242.372 16.8091 242.33 16.9379L237.146 28.4511C236.945 28.9093 236.73 29.3103 236.516 29.6253C236.301 29.9403 236.072 30.1981 235.828 30.4129C235.585 30.6134 235.298 30.7709 234.983 30.8568C234.668 30.9427 234.296 30.9857 233.866 30.9857H232.635C232.205 30.9857 231.833 30.9427 231.518 30.8568C231.203 30.7709 230.916 30.6277 230.673 30.4129C230.43 30.2124 230.186 29.9403 229.986 29.6253C229.771 29.3103 229.556 28.9236 229.356 28.4511L224.172 16.9379C224.114 16.7948 224.014 16.7375 223.842 16.7375H223.613C223.47 16.7375 223.413 16.8234 223.413 16.9952V30.4129C223.413 30.7852 223.227 30.9714 222.854 30.9714H220.234C219.833 30.9714 219.647 30.7852 219.647 30.4129V15.6635C219.647 14.6897 219.804 14.0024 220.105 13.6014C220.42 13.2005 221.021 13 221.923 13H224.659Z" fill="white"/>
</svg>
