<svg width="28" height="26" viewBox="0 0 28 26" fill="none" xmlns="http://www.w3.org/2000/svg">
<path d="M7.7 2.82609C7.98 2.82609 8.26 2.82609 8.54 2.96739L11.9 8.76087L6.72 15.2609C4.34 12.4348 2.8 10.1739 2.8 7.77174C2.8 4.94565 4.9 2.82609 7.7 2.82609ZM7.7 0C3.36 0 0 3.3913 0 7.77174C0 13.1413 4.76 17.5217 12.04 24.0217L14 25.8587L9.8 15.9674L15.4 8.90217L10.36 0.423913C9.52 0.141304 8.68 0 7.7 0ZM20.3 2.82609C23.1 2.82609 25.2 4.94565 25.2 7.77174C25.2 11.4457 21.56 15.1196 15.96 20.2065L15.54 16.9565L22.26 9.46739L19.04 3.1087C19.46 2.82609 19.88 2.82609 20.3 2.82609ZM20.3 0C18.48 0 16.66 0.706522 15.26 1.83696L18.9 9.04348L12.6 16.1087L14 26L15.96 24.163C23.24 17.5217 28 13.1413 28 7.91304C28 3.3913 24.64 0 20.3 0Z" fill="#1E1E1E"/>
</svg>
