<svg width="60" height="60" viewBox="0 0 60 60" fill="none" xmlns="http://www.w3.org/2000/svg">
<g clip-path="url(#clip0_96_234)">
<path d="M30.0419 37.7937C29.915 37.8368 29.8426 37.7264 29.7563 37.6756C25.5261 35.179 21.3005 32.6806 17.0796 30.1805C17.0387 30.1599 16.9963 30.1425 16.9527 30.1285V30.0727L17.0276 30.0295C17.1339 30.0016 17.2385 29.9677 17.341 29.928L27.3096 25.3923C28.1979 24.9875 29.0863 24.589 29.9746 24.188H30.0381C30.0381 24.3149 30.0381 24.4278 30.0381 24.5484C30.0414 28.9639 30.0427 33.379 30.0419 37.7937Z" fill="#393939"/>
<path d="M30.0482 24.1911H29.9847C29.9847 24.0642 29.9974 23.9373 29.9974 23.804C29.9974 18.8445 29.9974 13.8845 29.9974 8.92418C29.9828 8.79678 29.9914 8.66779 30.0228 8.54346H30.0495C30.5711 9.31378 31.0254 10.126 31.5051 10.9217C35.3055 17.2256 39.1038 23.5286 42.9001 29.8308C42.9369 29.893 42.966 29.9577 42.999 30.0262C42.8915 30.0033 42.7859 29.9723 42.683 29.9336C41.9863 29.6189 41.2871 29.2991 40.5967 28.978C39.5154 28.4831 38.4338 27.989 37.3517 27.4957L32.1384 25.134C31.4442 24.8142 30.7462 24.5033 30.0482 24.1911Z" fill="#343434"/>
<path d="M30.027 8.5366C29.9956 8.66094 29.987 8.78992 30.0016 8.91732C30.0016 13.8768 30.0016 18.8368 30.0016 23.7971C30.0016 23.924 29.994 24.051 29.9889 24.1842C29.1006 24.5852 28.2122 24.9837 27.3239 25.3886L17.3553 29.9242C17.2528 29.9639 17.1482 29.9978 17.0419 30.0257C17.3299 29.4267 17.7043 28.8836 18.0457 28.31C22.001 21.7353 25.9592 15.162 29.9204 8.5899C29.9465 8.5535 29.9749 8.51874 30.0054 8.48584L30.027 8.5366Z" fill="#8C8C8C"/>
<path d="M30.0484 24.1909C30.7464 24.5031 31.4444 24.814 32.1411 25.1288L37.3544 27.4905C38.4374 27.9829 39.519 28.477 40.5994 28.9728C41.2949 29.2913 41.9954 29.6136 42.6858 29.9284C42.7887 29.9671 42.8943 29.9981 43.0018 30.021C43.1287 30.1797 42.9409 30.186 42.8838 30.2203C41.8012 30.8675 40.7137 31.5058 39.6286 32.148C36.5143 33.9907 33.4009 35.8329 30.2883 37.6748C30.2096 37.7205 30.1245 37.7547 30.0421 37.7941C30.0421 33.3802 30.0421 28.966 30.0421 24.5513C30.0433 24.4308 30.0471 24.3115 30.0484 24.1909Z" fill="#141414"/>
<path d="M29.9973 40.3005L38.151 35.4946C39.7078 34.5758 41.2636 33.6561 42.8187 32.7356L42.9595 32.6582C42.9735 32.7851 42.8859 32.8524 42.8326 32.926C39.2792 37.9354 35.7258 42.9432 32.1725 47.9492C31.4999 48.8985 30.8285 49.8528 30.1496 50.7944C30.114 50.8439 30.0595 51.0762 29.9503 50.83C30.0366 50.7564 29.9985 50.6574 29.9985 50.5762C29.9994 47.1497 29.999 43.7245 29.9973 40.3005Z" fill="#3D3D3C"/>
<path d="M29.9966 40.3014C29.9966 43.7253 29.9966 47.1484 29.9966 50.5707C29.9966 50.6582 30.0346 50.7572 29.9483 50.8245C29.7669 50.7153 29.6882 50.5199 29.5676 50.3587C25.4474 44.5548 21.3293 38.7501 17.2133 32.9446C17.1612 32.871 17.113 32.7923 17.0597 32.7111C17.1663 32.6489 17.2234 32.7339 17.2856 32.7707C21.4524 35.231 25.6183 37.6934 29.7834 40.158C29.8608 40.2062 29.9268 40.2557 29.9966 40.3014Z" fill="#8C8C8C"/>
<path d="M30.0279 8.53651L29.9974 8.48955C30.0533 8.45402 30.0457 8.50605 30.0545 8.5327L30.0279 8.53651Z" fill="#393939"/>
</g>
<defs>
<clipPath id="clip0_96_234">
<rect width="26.087" height="42.4643" fill="white" transform="translate(16.9565 8.47803)"/>
</clipPath>
</defs>
</svg>
