<svg width="24" height="30" viewBox="0 0 24 30" fill="none" xmlns="http://www.w3.org/2000/svg">
<path d="M12 8.18182C13.48 8.18182 14.6667 6.95455 14.6667 5.45455C14.6667 4.93636 14.5333 4.45909 14.28 4.05L12 0L9.72 4.05C9.46667 4.45909 9.33333 4.93636 9.33333 5.45455C9.33333 6.95455 10.5333 8.18182 12 8.18182ZM20 12.2727H13.3333V9.54545H10.6667V12.2727H4C1.78667 12.2727 0 14.1 0 16.3636V28.6364C0 29.3864 0.6 30 1.33333 30H22.6667C23.4 30 24 29.3864 24 28.6364V16.3636C24 14.1 22.2133 12.2727 20 12.2727ZM21.3333 27.2727H2.66667V23.1818C3.86667 23.1818 5.01333 22.6773 5.86667 21.8182L7.33333 20.3455L8.74667 21.8182C10.4933 23.5909 13.5333 23.5773 15.2667 21.8182L16.7067 20.3455L18.1333 21.8182C18.9867 22.6773 20.1333 23.1818 21.3333 23.1818V27.2727ZM21.3333 21.1364C20.6667 21.1364 20 20.8636 19.5333 20.3591L16.6667 17.4545L13.84 20.3591C12.8533 21.3682 11.1333 21.3682 10.1467 20.3591L7.33333 17.4545L4.45333 20.3591C4 20.85 3.33333 21.1364 2.66667 21.1364V16.3636C2.66667 15.6136 3.26667 15 4 15H20C20.7333 15 21.3333 15.6136 21.3333 16.3636V21.1364Z" fill="#1E1E1E"/>
</svg>
