<svg width="38" height="44" viewBox="0 0 38 44" fill="none" xmlns="http://www.w3.org/2000/svg">
<path d="M4.21122 21.9998L4.23443 30.51L11.4655 34.765V39.7473L0.00254927 33.0243V19.5112L4.21122 21.9998ZM4.21122 13.4896V18.4487L-3.05176e-05 15.9576V10.9985L4.21122 8.50732L8.4431 10.9985L4.21122 13.4896ZM14.4853 10.9985L18.6966 8.50732L22.9285 10.9985L18.6966 13.4896L14.4853 10.9985Z" fill="#F0B90B"/>
<path d="M7.25635 28.746V23.7637L11.4676 26.2549V31.214L7.25635 28.746ZM14.4874 36.5496L18.6987 39.0407L22.9305 36.5496V41.5087L18.6987 43.9999L14.4874 41.5087V36.5496ZM28.9702 10.9985L33.1814 8.50732L37.4133 10.9985V15.9576L33.1814 18.4487V13.4896L28.9702 10.9985ZM33.1814 30.51L33.2047 21.9998L37.4159 19.5086V33.0217L25.953 39.7448V34.7625L33.1814 30.51Z" fill="#F0B90B"/>
<path d="M30.162 28.7465L25.9507 31.2144V26.2553L30.162 23.7642V28.7465Z" fill="#F0B90B"/>
<path d="M30.1616 15.2538L30.1848 20.2361L22.9331 24.4912V33.022L18.7218 35.4899L14.5106 33.022V24.4912L7.2589 20.2361V15.2538L11.4882 12.7627L18.6961 17.0384L25.9478 12.7627L30.1796 15.2538H30.1616ZM7.25632 6.74624L18.6986 0L30.1616 6.74624L25.9503 9.23739L18.6986 4.96168L11.4676 9.23739L7.25632 6.74624Z" fill="#F0B90B"/>
</svg>
