<svg width="44" height="44" viewBox="0 0 44 44" fill="none" xmlns="http://www.w3.org/2000/svg">
<g clip-path="url(#clip0_96_311)">
<path d="M8.49924 15.6743V28.3263C8.49924 29.1314 8.92823 29.8772 9.62781 30.2798L20.5836 36.6025C21.2831 37.0051 22.1411 37.0051 22.8407 36.6025L33.7965 30.2798C34.4961 29.8772 34.925 29.1314 34.925 28.3263V15.6743C34.925 14.8692 34.4961 14.1234 33.7965 13.7208L22.8407 7.39813C22.1411 6.99554 21.2831 6.99554 20.5836 7.39813L9.62781 13.7208C8.93483 14.1234 8.49924 14.8692 8.49924 15.6743Z" fill="#213147"/>
<path d="M24.1078 24.4507L22.5437 28.734C22.4975 28.8528 22.4975 28.9848 22.5437 29.1036L25.2298 36.4756L28.3383 34.6804L24.6094 24.4507C24.5236 24.2131 24.1936 24.2131 24.1078 24.4507Z" fill="#12AAFF"/>
<path d="M27.2362 17.2451C27.1504 17.0075 26.8204 17.0075 26.7346 17.2451L25.1704 21.5284C25.1242 21.6472 25.1242 21.7792 25.1704 21.898L29.5725 33.9691L32.6811 32.1739L27.2362 17.2451Z" fill="#12AAFF"/>
<path d="M21.7122 7.86645C21.7914 7.86645 21.864 7.88625 21.9366 7.92585L33.7899 14.7699C33.9285 14.8491 34.0143 14.9943 34.0143 15.1527V28.8408C34.0143 28.9992 33.9285 29.1444 33.7899 29.2236L21.9366 36.0742C21.8706 36.1138 21.7914 36.1336 21.7122 36.1336C21.633 36.1336 21.5604 36.1138 21.4878 36.0742L9.64105 29.2302C9.50245 29.151 9.41666 29.0058 9.41666 28.8474V15.1527C9.41666 14.9943 9.50245 14.8491 9.64105 14.7699L21.4944 7.92585C21.5604 7.88625 21.6396 7.86645 21.7122 7.86645ZM21.7122 5.8667C21.2898 5.8667 20.8674 5.9789 20.4912 6.19669L8.63787 13.0407C7.88549 13.4763 7.4169 14.2815 7.4169 15.1527V28.8408C7.4169 29.712 7.88549 30.5237 8.63787 30.9593L20.4912 37.8034C20.8674 38.0212 21.2898 38.1334 21.7122 38.1334C22.1346 38.1334 22.557 38.0212 22.9332 37.8034L34.7865 30.9593C35.5455 30.5237 36.0075 29.7186 36.0075 28.8408V15.1527C36.0075 14.2815 35.5389 13.4697 34.7865 13.0341L22.9397 6.19669C22.557 5.9789 22.1346 5.8667 21.7122 5.8667Z" fill="#9DCCED"/>
<path d="M13.8781 33.9817L14.9671 30.9985L17.1582 32.8201L15.1123 34.6945L13.8781 33.9817Z" fill="#213147"/>
<path d="M20.7156 14.1758H17.7126C17.4882 14.1758 17.2836 14.3144 17.211 14.5256L10.7696 32.1868L13.8781 33.9819L20.973 14.5322C21.0324 14.3606 20.907 14.1758 20.7156 14.1758Z" fill="white"/>
<path d="M25.9755 14.1758H22.9726C22.7482 14.1758 22.5436 14.3144 22.471 14.5256L15.1122 34.6947L18.2207 36.4899L26.2263 14.5388C26.2923 14.3606 26.1603 14.1758 25.9755 14.1758Z" fill="white"/>
</g>
<defs>
<clipPath id="clip0_96_311">
<rect width="44" height="44" fill="white"/>
</clipPath>
</defs>
</svg>
