<svg width="28" height="28" viewBox="0 0 28 28" fill="none" xmlns="http://www.w3.org/2000/svg">
<path d="M9.212 21.35L10.5 15.904L6.3 12.292L11.83 11.774L14 6.72L16.17 11.83L21.7 12.292L17.5 15.904L18.788 21.35L14 18.466L9.212 21.35ZM14 0C15.8385 0 17.659 0.362121 19.3576 1.06569C21.0561 1.76925 22.5995 2.80048 23.8995 4.1005C25.1995 5.40053 26.2307 6.94387 26.9343 8.64243C27.6379 10.341 28 12.1615 28 14C28 17.713 26.525 21.274 23.8995 23.8995C21.274 26.525 17.713 28 14 28C12.1615 28 10.341 27.6379 8.64243 26.9343C6.94387 26.2307 5.40053 25.1995 4.1005 23.8995C1.475 21.274 0 17.713 0 14C0 10.287 1.475 6.72601 4.1005 4.1005C6.72601 1.475 10.287 0 14 0ZM14 2.8C11.0296 2.8 8.18081 3.98 6.0804 6.0804C3.98 8.18081 2.8 11.0296 2.8 14C2.8 16.9704 3.98 19.8192 6.0804 21.9196C8.18081 24.02 11.0296 25.2 14 25.2C16.9704 25.2 19.8192 24.02 21.9196 21.9196C24.02 19.8192 25.2 16.9704 25.2 14C25.2 11.0296 24.02 8.18081 21.9196 6.0804C19.8192 3.98 16.9704 2.8 14 2.8Z" fill="#1E1E1E"/>
</svg>
