<svg width="28" height="24" viewBox="0 0 28 24" fill="none" xmlns="http://www.w3.org/2000/svg">
<path d="M3.74537 20.0777C4.12262 22.1 6.52142 24 8.69731 24H20.1685L19.415 19.9891H10.8986C9.8835 19.9891 8.76438 19.103 8.5878 18.1595L6.8886 9.07973L5.1894 0C2.49182 0 0.456952 2.44956 0.951636 5.1014L3.74537 20.0777Z" fill="white"/>
<path d="M28 23.9448L23.655 2.58199C23.349 1.07755 22.0605 0 20.5677 0H7.90497L8.72989 4.00169H17.9691C18.6654 4.00169 19.2664 4.50394 19.4096 5.20546L20.3378 9.75105L21.1468 13.7527C20.7309 11.838 19.3271 10.3062 17.5172 9.75105H10.1259L10.935 13.7527H21.1468L23.2091 23.9448H28Z" fill="white"/>
</svg>
